<mxfile host="app.diagrams.net" modified="2020-09-13T22:23:03.601Z" agent="5.0 (Windows NT 10.0; Win64; x64) AppleWebKit/537.36 (KHTML, like Gecko) Chrome/85.0.4183.102 Safari/537.36" etag="srEVKE09PdzYEpf0Wkux" version="13.6.10" type="github">
  <diagram name="Page-1" id="edf60f1a-56cd-e834-aa8a-f176f3a09ee4">
    <mxGraphModel dx="1185" dy="662" grid="1" gridSize="10" guides="1" tooltips="1" connect="1" arrows="1" fold="1" page="1" pageScale="1" pageWidth="5000" pageHeight="5000" background="#ffffff" math="0" shadow="0">
      <root>
        <mxCell id="0" />
        <mxCell id="1" parent="0" />
        <mxCell id="6EovEtZMzCxZlVtwhs3X-1" style="edgeStyle=orthogonalEdgeStyle;rounded=0;html=1;labelBackgroundColor=none;startSize=5;endArrow=classicThin;endFill=1;endSize=5;jettySize=auto;orthogonalLoop=1;strokeWidth=1;fontFamily=Verdana;fontSize=8;fillColor=#FFD966;" edge="1" source="6EovEtZMzCxZlVtwhs3X-2" parent="1">
          <mxGeometry relative="1" as="geometry">
            <mxPoint x="3155" y="2380" as="targetPoint" />
          </mxGeometry>
        </mxCell>
        <mxCell id="6EovEtZMzCxZlVtwhs3X-75" value="Ja&lt;br&gt;" style="edgeLabel;html=1;align=center;verticalAlign=middle;resizable=0;points=[];" vertex="1" connectable="0" parent="6EovEtZMzCxZlVtwhs3X-1">
          <mxGeometry x="0.0957" relative="1" as="geometry">
            <mxPoint as="offset" />
          </mxGeometry>
        </mxCell>
        <mxCell id="6EovEtZMzCxZlVtwhs3X-2" value="Hallo, wollen sie wissen&amp;nbsp;&lt;br&gt;warum wir hier sind?" style="shape=trapezoid;whiteSpace=wrap;html=1;rounded=0;shadow=1;labelBackgroundColor=none;strokeWidth=1;fontFamily=Verdana;fontSize=8;align=center;flipV=1;fillColor=#80FF00;" vertex="1" parent="1">
          <mxGeometry x="3040" y="2280" width="120" height="60" as="geometry" />
        </mxCell>
        <mxCell id="6EovEtZMzCxZlVtwhs3X-16" value="&quot;Ich finde es vertretbar/ gut was da passiert.&amp;nbsp;" style="whiteSpace=wrap;html=1;rounded=0;shadow=1;labelBackgroundColor=none;strokeWidth=1;fontFamily=Verdana;fontSize=8;align=center;fillColor=#A9C4EB;" vertex="1" parent="1">
          <mxGeometry x="3030" y="2480" width="120" height="40" as="geometry" />
        </mxCell>
        <mxCell id="6EovEtZMzCxZlVtwhs3X-20" value="&quot;Ich finde es traurig was dort geschieht&quot;" style="whiteSpace=wrap;html=1;rounded=0;shadow=1;labelBackgroundColor=none;strokeWidth=1;fontFamily=Verdana;fontSize=8;align=center;spacing=6;fillColor=#A9C4EB;" vertex="1" parent="1">
          <mxGeometry x="3740" y="2490" width="120" height="40" as="geometry" />
        </mxCell>
        <mxCell id="6EovEtZMzCxZlVtwhs3X-60" value="&lt;div&gt;&lt;span style=&quot;font-family: &amp;#34;verdana&amp;#34; ; font-size: 8px&quot;&gt;Wir sind hier, um Bilder aus der&amp;nbsp;&lt;/span&gt;&lt;/div&gt;&lt;span style=&quot;font-size: 8px ; font-family: &amp;#34;verdana&amp;#34;&quot;&gt;&lt;div&gt;&lt;span&gt;Tierindustrie zu zeigen.&amp;nbsp;&lt;/span&gt;&lt;/div&gt;&lt;/span&gt;&lt;span style=&quot;font-size: 8px ; font-family: &amp;#34;verdana&amp;#34;&quot;&gt;&lt;div&gt;&lt;span&gt;Was denken Sie über die Bilder,&amp;nbsp;&lt;/span&gt;&lt;/div&gt;&lt;/span&gt;&lt;span style=&quot;font-size: 8px ; font-family: &amp;#34;verdana&amp;#34;&quot;&gt;&lt;div&gt;&lt;span&gt;die wir hier zeigen?/ Wie denken sie geht es den Tieren auf den Bildern?&lt;/span&gt;&lt;/div&gt;&lt;div&gt;&lt;br&gt;&lt;/div&gt;&lt;/span&gt;" style="rounded=0;whiteSpace=wrap;html=1;align=center;fillColor=#80FF00;" vertex="1" parent="1">
          <mxGeometry x="3070" y="2370" width="160" height="80" as="geometry" />
        </mxCell>
        <mxCell id="6EovEtZMzCxZlVtwhs3X-61" value="" style="endArrow=none;html=1;" edge="1" parent="1">
          <mxGeometry width="50" height="50" relative="1" as="geometry">
            <mxPoint x="3100" y="2360" as="sourcePoint" />
            <mxPoint x="2920" y="2360" as="targetPoint" />
          </mxGeometry>
        </mxCell>
        <mxCell id="6EovEtZMzCxZlVtwhs3X-67" value="No&lt;br&gt;" style="edgeLabel;html=1;align=center;verticalAlign=middle;resizable=0;points=[];" vertex="1" connectable="0" parent="6EovEtZMzCxZlVtwhs3X-61">
          <mxGeometry x="0.4733" relative="1" as="geometry">
            <mxPoint as="offset" />
          </mxGeometry>
        </mxCell>
        <mxCell id="6EovEtZMzCxZlVtwhs3X-68" value="&lt;div style=&quot;font-size: 10px&quot;&gt;&lt;div&gt;&lt;font style=&quot;line-height: 90% ; font-size: 10px&quot;&gt;Sie sind natürlich trotzdem willkommen sich die Bilder anzuschauen und falls Sie fragen haben, fragen Sie mich ruhig.&amp;nbsp;&lt;/font&gt;&lt;font style=&quot;font-size: 10px ; line-height: 90%&quot;&gt;&amp;nbsp;&lt;/font&gt;&lt;/div&gt;&lt;/div&gt;" style="whiteSpace=wrap;html=1;aspect=fixed;align=center;fillColor=#99FF33;" vertex="1" parent="1">
          <mxGeometry x="2740" y="2400" width="100" height="100" as="geometry" />
        </mxCell>
        <mxCell id="6EovEtZMzCxZlVtwhs3X-69" value="" style="endArrow=none;html=1;exitX=0.5;exitY=0;exitDx=0;exitDy=0;entryX=0.313;entryY=0.995;entryDx=0;entryDy=0;entryPerimeter=0;" edge="1" parent="1" source="6EovEtZMzCxZlVtwhs3X-16" target="6EovEtZMzCxZlVtwhs3X-60">
          <mxGeometry width="50" height="50" relative="1" as="geometry">
            <mxPoint x="3100" y="2460" as="sourcePoint" />
            <mxPoint x="3150" y="2410" as="targetPoint" />
          </mxGeometry>
        </mxCell>
        <mxCell id="6EovEtZMzCxZlVtwhs3X-70" value="" style="endArrow=none;html=1;entryX=0.825;entryY=1.013;entryDx=0;entryDy=0;entryPerimeter=0;exitX=0.5;exitY=0;exitDx=0;exitDy=0;" edge="1" parent="1" source="6EovEtZMzCxZlVtwhs3X-20" target="6EovEtZMzCxZlVtwhs3X-60">
          <mxGeometry width="50" height="50" relative="1" as="geometry">
            <mxPoint x="3100" y="2460" as="sourcePoint" />
            <mxPoint x="3150" y="2410" as="targetPoint" />
          </mxGeometry>
        </mxCell>
        <mxCell id="6EovEtZMzCxZlVtwhs3X-73" value="" style="endArrow=classic;html=1;exitX=0.414;exitY=1.062;exitDx=0;exitDy=0;exitPerimeter=0;fillColor=#33FF33;entryX=0.5;entryY=0;entryDx=0;entryDy=0;" edge="1" parent="1" source="6EovEtZMzCxZlVtwhs3X-16" target="6EovEtZMzCxZlVtwhs3X-80">
          <mxGeometry width="50" height="50" relative="1" as="geometry">
            <mxPoint x="3100" y="2570" as="sourcePoint" />
            <mxPoint x="2950" y="2600" as="targetPoint" />
          </mxGeometry>
        </mxCell>
        <mxCell id="6EovEtZMzCxZlVtwhs3X-78" value=", da es Notwendig ist" style="edgeLabel;html=1;align=center;verticalAlign=middle;resizable=0;points=[];" vertex="1" connectable="0" parent="6EovEtZMzCxZlVtwhs3X-73">
          <mxGeometry x="-0.0893" y="-1" relative="1" as="geometry">
            <mxPoint x="-24.85" as="offset" />
          </mxGeometry>
        </mxCell>
        <mxCell id="6EovEtZMzCxZlVtwhs3X-77" value="" style="endArrow=classic;html=1;fillColor=#FFD966;exitX=0.394;exitY=1.062;exitDx=0;exitDy=0;exitPerimeter=0;" edge="1" parent="1" source="6EovEtZMzCxZlVtwhs3X-16">
          <mxGeometry width="50" height="50" relative="1" as="geometry">
            <mxPoint x="3100" y="2610" as="sourcePoint" />
            <mxPoint x="3390" y="2600" as="targetPoint" />
          </mxGeometry>
        </mxCell>
        <mxCell id="6EovEtZMzCxZlVtwhs3X-79" value=", weil ich es nicht &lt;br&gt;schlimm finde&amp;nbsp;" style="edgeLabel;html=1;align=center;verticalAlign=middle;resizable=0;points=[];" vertex="1" connectable="0" parent="6EovEtZMzCxZlVtwhs3X-77">
          <mxGeometry x="-0.1547" y="1" relative="1" as="geometry">
            <mxPoint y="14.17" as="offset" />
          </mxGeometry>
        </mxCell>
        <mxCell id="6EovEtZMzCxZlVtwhs3X-80" value="was wurde gezeigt?" style="rounded=0;whiteSpace=wrap;html=1;fillColor=#FFFFFF;" vertex="1" parent="1">
          <mxGeometry x="2930" y="2590" width="120" height="20" as="geometry" />
        </mxCell>
        <mxCell id="6EovEtZMzCxZlVtwhs3X-81" value="Fleisch, Milch etc.&amp;nbsp;" style="whiteSpace=wrap;html=1;fillColor=#FFFFFF;" vertex="1" parent="1">
          <mxGeometry x="2830" y="2630" width="120" height="20" as="geometry" />
        </mxCell>
        <mxCell id="6EovEtZMzCxZlVtwhs3X-82" value="" style="endArrow=classic;html=1;fillColor=#FFD966;entryX=0.5;entryY=0;entryDx=0;entryDy=0;exitX=0.5;exitY=1;exitDx=0;exitDy=0;" edge="1" parent="1" source="6EovEtZMzCxZlVtwhs3X-80" target="6EovEtZMzCxZlVtwhs3X-81">
          <mxGeometry width="50" height="50" relative="1" as="geometry">
            <mxPoint x="3100" y="2690" as="sourcePoint" />
            <mxPoint x="3150" y="2640" as="targetPoint" />
          </mxGeometry>
        </mxCell>
        <mxCell id="6EovEtZMzCxZlVtwhs3X-83" value="" style="endArrow=classic;html=1;fillColor=#FFD966;exitX=0.104;exitY=1.052;exitDx=0;exitDy=0;exitPerimeter=0;" edge="1" parent="1" source="6EovEtZMzCxZlVtwhs3X-81" target="6EovEtZMzCxZlVtwhs3X-84">
          <mxGeometry width="50" height="50" relative="1" as="geometry">
            <mxPoint x="3100" y="2690" as="sourcePoint" />
            <mxPoint x="2930" y="2680" as="targetPoint" />
          </mxGeometry>
        </mxCell>
        <mxCell id="6EovEtZMzCxZlVtwhs3X-84" value="Glauben Sie wir können ohne tierische Produkte gesund leben?" style="rounded=0;whiteSpace=wrap;html=1;fillColor=#66CC00;" vertex="1" parent="1">
          <mxGeometry x="2910" y="2660" width="120" height="60" as="geometry" />
        </mxCell>
        <mxCell id="6EovEtZMzCxZlVtwhs3X-85" value="Ja" style="endArrow=classic;html=1;fillColor=#FFD966;exitX=0.422;exitY=1.002;exitDx=0;exitDy=0;exitPerimeter=0;" edge="1" parent="1" source="6EovEtZMzCxZlVtwhs3X-84" target="6EovEtZMzCxZlVtwhs3X-87">
          <mxGeometry width="50" height="50" relative="1" as="geometry">
            <mxPoint x="3100" y="2770" as="sourcePoint" />
            <mxPoint x="2940" y="2760" as="targetPoint" />
          </mxGeometry>
        </mxCell>
        <mxCell id="6EovEtZMzCxZlVtwhs3X-86" value="Nein" style="endArrow=classic;html=1;fillColor=#FFD966;exitX=0.636;exitY=1.033;exitDx=0;exitDy=0;exitPerimeter=0;" edge="1" parent="1" source="6EovEtZMzCxZlVtwhs3X-84">
          <mxGeometry width="50" height="50" relative="1" as="geometry">
            <mxPoint x="3100" y="2770" as="sourcePoint" />
            <mxPoint x="3010" y="2760" as="targetPoint" />
          </mxGeometry>
        </mxCell>
        <mxCell id="6EovEtZMzCxZlVtwhs3X-87" value="Dann ist es also nicht notwendig, dass wir das Gezeigte mit den Tieren machen richtig?" style="rounded=0;whiteSpace=wrap;html=1;fillColor=#66CC00;" vertex="1" parent="1">
          <mxGeometry x="2770" y="2760" width="120" height="80" as="geometry" />
        </mxCell>
        <mxCell id="6EovEtZMzCxZlVtwhs3X-91" value="" style="endArrow=none;html=1;fillColor=#FFD966;" edge="1" parent="1" target="6EovEtZMzCxZlVtwhs3X-87">
          <mxGeometry width="50" height="50" relative="1" as="geometry">
            <mxPoint x="2760" y="2640" as="sourcePoint" />
            <mxPoint x="2670" y="2780" as="targetPoint" />
          </mxGeometry>
        </mxCell>
        <mxCell id="6EovEtZMzCxZlVtwhs3X-95" value="" style="endArrow=none;html=1;fillColor=#FFD966;" edge="1" parent="1">
          <mxGeometry width="50" height="50" relative="1" as="geometry">
            <mxPoint x="2800" y="2360" as="sourcePoint" />
            <mxPoint x="2920" y="2360" as="targetPoint" />
          </mxGeometry>
        </mxCell>
        <mxCell id="6EovEtZMzCxZlVtwhs3X-96" value="" style="endArrow=none;html=1;fillColor=#FFD966;" edge="1" parent="1">
          <mxGeometry width="50" height="50" relative="1" as="geometry">
            <mxPoint x="2800" y="2400" as="sourcePoint" />
            <mxPoint x="2800" y="2360" as="targetPoint" />
          </mxGeometry>
        </mxCell>
        <mxCell id="6EovEtZMzCxZlVtwhs3X-100" value="" style="endArrow=classic;html=1;fillColor=#FFD966;entryX=-0.011;entryY=0.448;entryDx=0;entryDy=0;entryPerimeter=0;" edge="1" parent="1" target="6EovEtZMzCxZlVtwhs3X-60">
          <mxGeometry width="50" height="50" relative="1" as="geometry">
            <mxPoint x="2760" y="2640" as="sourcePoint" />
            <mxPoint x="2810" y="2590" as="targetPoint" />
          </mxGeometry>
        </mxCell>
        <mxCell id="6EovEtZMzCxZlVtwhs3X-101" value="&lt;div style=&quot;text-align: left&quot;&gt;&lt;span&gt;Die größte Ernährungsgesellschaft&amp;nbsp;&lt;/span&gt;&lt;/div&gt;&lt;div style=&quot;text-align: left&quot;&gt;&lt;span&gt;der Welt, die Academy of Nutrition and Dietetics, ist zu dem Schluss gekommen, dass eine vegane Ernährung für alle Phasen des Lebens inklusive Säuglingsalter, Schwangerschaft und für Athleten bedarfsdeckend sein kann.&amp;nbsp;&amp;nbsp;&lt;/span&gt;&lt;/div&gt;&lt;div style=&quot;text-align: left&quot;&gt;Gibt es einen Nährstoff, wegen dem Sie denken, man könne nicht gesund Vegan leben?&lt;/div&gt;" style="whiteSpace=wrap;html=1;fillColor=#66CC00;" vertex="1" parent="1">
          <mxGeometry x="2980" y="2760" width="170" height="210" as="geometry" />
        </mxCell>
        <mxCell id="6EovEtZMzCxZlVtwhs3X-102" value="" style="endArrow=classic;html=1;fillColor=#FFD966;" edge="1" parent="1">
          <mxGeometry width="50" height="50" relative="1" as="geometry">
            <mxPoint x="3040" y="2973" as="sourcePoint" />
            <mxPoint x="3190" y="3040" as="targetPoint" />
          </mxGeometry>
        </mxCell>
        <mxCell id="6EovEtZMzCxZlVtwhs3X-104" value="nennt keinen&amp;nbsp;&lt;br&gt;Nährstoff etc.&amp;nbsp;" style="edgeLabel;html=1;align=center;verticalAlign=middle;resizable=0;points=[];" vertex="1" connectable="0" parent="6EovEtZMzCxZlVtwhs3X-102">
          <mxGeometry x="-0.2182" y="1" relative="1" as="geometry">
            <mxPoint as="offset" />
          </mxGeometry>
        </mxCell>
        <mxCell id="6EovEtZMzCxZlVtwhs3X-103" value="" style="endArrow=classic;html=1;fillColor=#FFD966;" edge="1" parent="1">
          <mxGeometry width="50" height="50" relative="1" as="geometry">
            <mxPoint x="3040" y="2970" as="sourcePoint" />
            <mxPoint x="2900" y="3050" as="targetPoint" />
          </mxGeometry>
        </mxCell>
        <mxCell id="6EovEtZMzCxZlVtwhs3X-105" value="nennt einen Nährstoff" style="edgeLabel;html=1;align=center;verticalAlign=middle;resizable=0;points=[];" vertex="1" connectable="0" parent="6EovEtZMzCxZlVtwhs3X-103">
          <mxGeometry x="-0.2354" y="-3" relative="1" as="geometry">
            <mxPoint as="offset" />
          </mxGeometry>
        </mxCell>
        <mxCell id="6EovEtZMzCxZlVtwhs3X-107" value="Hast du deine Hausaufgaben gemacht und kannst es entkräften?" style="rounded=0;whiteSpace=wrap;html=1;fillColor=#FFFFFF;" vertex="1" parent="1">
          <mxGeometry x="2820" y="3050" width="120" height="60" as="geometry" />
        </mxCell>
        <mxCell id="6EovEtZMzCxZlVtwhs3X-108" value="" style="endArrow=classic;html=1;fillColor=#FFD966;exitX=0.5;exitY=1;exitDx=0;exitDy=0;" edge="1" parent="1" source="6EovEtZMzCxZlVtwhs3X-107">
          <mxGeometry width="50" height="50" relative="1" as="geometry">
            <mxPoint x="3030" y="3180" as="sourcePoint" />
            <mxPoint x="2720" y="3160" as="targetPoint" />
          </mxGeometry>
        </mxCell>
        <mxCell id="6EovEtZMzCxZlVtwhs3X-110" value="Ja&lt;br&gt;" style="edgeLabel;html=1;align=center;verticalAlign=middle;resizable=0;points=[];" vertex="1" connectable="0" parent="6EovEtZMzCxZlVtwhs3X-108">
          <mxGeometry x="-0.1809" y="2" relative="1" as="geometry">
            <mxPoint as="offset" />
          </mxGeometry>
        </mxCell>
        <mxCell id="6EovEtZMzCxZlVtwhs3X-109" value="" style="endArrow=classic;html=1;fillColor=#FFD966;" edge="1" parent="1">
          <mxGeometry width="50" height="50" relative="1" as="geometry">
            <mxPoint x="2880" y="3110" as="sourcePoint" />
            <mxPoint x="2990" y="3160" as="targetPoint" />
          </mxGeometry>
        </mxCell>
        <mxCell id="6EovEtZMzCxZlVtwhs3X-111" value="Nein&lt;br&gt;" style="edgeLabel;html=1;align=center;verticalAlign=middle;resizable=0;points=[];" vertex="1" connectable="0" parent="6EovEtZMzCxZlVtwhs3X-109">
          <mxGeometry x="-0.1712" y="-3" relative="1" as="geometry">
            <mxPoint as="offset" />
          </mxGeometry>
        </mxCell>
        <mxCell id="6EovEtZMzCxZlVtwhs3X-117" style="edgeStyle=orthogonalEdgeStyle;rounded=0;orthogonalLoop=1;jettySize=auto;html=1;entryX=0.583;entryY=1.038;entryDx=0;entryDy=0;entryPerimeter=0;fillColor=#FFD966;exitX=0;exitY=0.75;exitDx=0;exitDy=0;" edge="1" parent="1" source="6EovEtZMzCxZlVtwhs3X-112" target="6EovEtZMzCxZlVtwhs3X-87">
          <mxGeometry relative="1" as="geometry" />
        </mxCell>
        <mxCell id="6EovEtZMzCxZlVtwhs3X-112" value="Na dann los.&amp;nbsp;" style="rounded=0;whiteSpace=wrap;html=1;fillColor=#66CC00;" vertex="1" parent="1">
          <mxGeometry x="2650" y="3160" width="120" height="60" as="geometry" />
        </mxCell>
        <mxCell id="6EovEtZMzCxZlVtwhs3X-118" value="Anscheinend ist es möglich, das Problem zu umgehen, sonst würde die AND nicht sagen, dass es für alle Lebensabschnitte bedarfsdeckend ist.&amp;nbsp;&lt;br&gt;&lt;br&gt;The Game Changers + What the Health? angucken.&amp;nbsp;&lt;br&gt;&lt;br&gt;Falls nicht überzeugt:&amp;nbsp;&lt;br&gt;Ich bin mir sicher, wenn sie weiter zu dem Thema recherchieren werden sie einen Weg den Bedarf an diesem Nährstoff auf vegane Art und Weise zu decken.&amp;nbsp;&lt;br&gt;Wie denken Sie über die Bilder, die wir hier zeigen unter der Annahme,&amp;nbsp;&lt;br&gt;dass wir ohne tierische Produkte gesund leben können?&lt;br&gt;(weiter in 2. Stufe)" style="rounded=0;whiteSpace=wrap;html=1;fillColor=#66CC00;" vertex="1" parent="1">
          <mxGeometry x="2820" y="3160" width="200" height="290" as="geometry" />
        </mxCell>
        <mxCell id="6EovEtZMzCxZlVtwhs3X-119" value="" style="endArrow=classic;html=1;fillColor=#FFD966;exitX=0.75;exitY=1;exitDx=0;exitDy=0;entryX=0.5;entryY=0;entryDx=0;entryDy=0;" edge="1" parent="1" source="6EovEtZMzCxZlVtwhs3X-80" target="6EovEtZMzCxZlVtwhs3X-120">
          <mxGeometry width="50" height="50" relative="1" as="geometry">
            <mxPoint x="3030" y="2740" as="sourcePoint" />
            <mxPoint x="3120" y="2640" as="targetPoint" />
          </mxGeometry>
        </mxCell>
        <mxCell id="6EovEtZMzCxZlVtwhs3X-120" value="Tierversuche" style="rounded=0;whiteSpace=wrap;html=1;" vertex="1" parent="1">
          <mxGeometry x="3070" y="2630" width="80" height="20" as="geometry" />
        </mxCell>
      </root>
    </mxGraphModel>
  </diagram>
</mxfile>
